<?xml version="1.0" encoding="utf-8" ?><svg xmlns="http://www.w3.org/2000/svg" xmlns:xlink="http://www.w3.org/1999/xlink" width="1024" height="1024" viewBox="0 0 1024 1024"><path d="M0 0L1024 0L1024 1024L0 1024L0 0Z"/><path fill="white" d="M491.731 560.29C465.731 565.123 435.079 549.273 415.787 533.134C363.043 489.482 329.781 426.681 323.305 358.523C318.73 307.008 333.215 256.517 366.592 216.683C398.837 178.141 445.072 153.986 495.126 149.531C535.626 145.964 572.785 154.235 606.873 176.773C617.047 183.5 625.494 190.69 634.806 198.513C627.663 199.122 620.865 199.285 613.599 200.11C602.455 201.375 592.788 203.48 581.812 205.868C562.322 197.424 548.383 192.313 526.711 190.224C486.014 186.41 445.477 199.56 413.924 225.245C332.212 291.761 347.761 413.032 408.207 487.707C427.488 511.526 463.24 539.378 494.348 542.172C494.426 541.687 494.534 541.476 494.258 541.104C497.095 540.793 501.074 541.753 504.314 541.191C506.753 540.769 508.761 540.677 511.267 540.027C515.208 539.004 517.674 537.971 520.977 535.656C523.93 533.586 525.183 531.443 527.406 528.689C527.968 527.67 528.617 526.524 529.071 525.479C530.91 521.244 531.314 517.312 531.075 512.748C530.963 510.615 529.573 508.295 528.934 506.25L528.347 505.872C527.563 504.817 521.251 497.075 520.623 501.491C523.23 503.78 525.804 506.218 526.013 510.001C526.058 510.825 525.899 511.949 526.264 512.63C527.899 512.2 526.801 508.724 527.321 507.886L527.357 507.884C528.444 508.969 527.43 511.453 527.317 512.75C527.293 513.251 527.269 513.752 527.245 514.252C525.885 523.861 516.22 530.154 506.826 527.222C504.744 526.902 503.276 525.909 501.479 525.14C498.304 523.78 497.592 523.223 495.681 520.285C494.185 517.986 493.022 515.595 492.526 512.777C492.038 510.004 491.932 506.045 492.509 503.235C494.62 492.482 505.685 484.536 516.008 482.569C519.027 481.997 525.209 481.039 528.057 481.885C527.773 482.236 527.895 482.392 528.032 482.845C591.77 492.274 606.184 571.236 596.787 624.406C585.654 687.403 555.206 743.361 503.841 782.367C423.094 843.685 300.607 830.899 240.204 747.484C218.572 717.611 208.703 687.279 204.896 650.743C222.414 666.372 230.258 671.533 250.678 683.431C260.058 715.444 293.243 749.428 321.873 764.755C406.871 810.259 504.528 765.659 546.255 683.884C568.967 639.56 578.976 590.665 564.501 542.506C563.12 537.979 561.556 533.51 559.811 529.111L558.765 530.149C559.639 534.112 560.09 538.157 560.11 542.216C560.515 572.713 541.627 601.69 520.987 622.858C475.474 669.537 408.036 699.886 342.622 700.558C291.416 701.151 242.07 681.383 205.437 645.599C170.315 610.268 150.573 562.492 150.508 512.673C150.387 469.855 168.488 421.457 198.794 390.933C199.856 412.044 201.167 424.614 206.937 445.245C195.592 468.281 190.334 493.839 191.667 519.483C193.616 561.068 212.237 600.115 243.326 627.803C259.452 642.118 283.105 654.4 303.789 660.222C373.273 679.782 460.938 650.025 508.05 596.432C514.554 589.019 520.401 581.054 525.524 572.627C537.291 553.65 542.867 540.264 541.359 517.658L540.28 517.68L540.619 520.199C541.431 523.3 541.43 524.716 540.621 527.801C538.111 547.284 529.034 562.94 513.59 575.077C482.477 599.527 441.791 602.175 403.874 597.123C339.43 588.182 281.011 554.467 241.029 503.14C180.519 423.996 192.406 304.245 272.086 242.417C300.858 220.09 335.694 208.229 371.726 204.777C358.906 219.429 348.828 231.92 340.113 249.642C302.381 264.042 271.915 292.842 255.417 329.705C238.199 367.752 238.479 414.871 254.169 453.532C285.333 530.324 376.672 579.749 458.084 569.818C468.845 568.506 479.7 566.174 489.68 562.321C490.687 561.931 491.691 561.531 492.691 561.121L491.731 560.29Z"/><path fill="#5E5F60" d="M520.623 501.491C523.23 503.78 525.804 506.218 526.013 510.001C526.058 510.825 525.899 511.949 526.264 512.63C527.899 512.2 526.801 508.724 527.321 507.886L527.357 507.884C528.444 508.969 527.43 511.453 527.317 512.75C527.293 513.251 527.269 513.752 527.245 514.252C525.885 523.861 516.22 530.154 506.826 527.222C504.744 526.902 503.276 525.909 501.479 525.14C498.304 523.78 497.592 523.223 495.681 520.285C494.185 517.986 493.022 515.595 492.526 512.777C492.038 510.004 491.932 506.045 492.509 503.235C494.62 492.482 505.685 484.536 516.008 482.569C519.027 481.997 525.209 481.039 528.057 481.885C527.773 482.236 527.895 482.392 528.032 482.845L527.116 482.87C523.862 482.927 522.211 482.576 518.749 482.996C506.757 484.451 493.952 492.922 492.792 505.781C492.564 508.309 491.978 508.949 492.75 512.004C493.126 514.305 494.757 517.647 495.896 519.672C496.704 521.11 504.829 527.939 505.579 525.773C505.478 525.564 501.472 522.915 500.682 522.233C502.081 522.258 503.799 523.745 504.204 523.286C504.056 523.234 503.908 523.183 503.76 523.131C496.831 517.685 497.6 509.995 499.709 504.119C502.466 500.498 503.235 499.777 507.355 497.692C507.114 498.706 507.002 498.418 506.817 499.281C507.492 499.293 507.664 498.886 508.375 498.639C512.585 497.176 516.961 499.809 520.623 501.491Z"/><path fill="#7C7D7F" d="M515.863 501.782C513.589 499.635 508.441 501.878 506.048 502.791C501.145 504.66 501.553 515.071 500.716 516.126L500.523 516.143C498.333 514.539 502.196 501.24 508.304 500.214C515.007 499.089 523.485 502.002 525.016 508.692C525.09 513.565 524.634 517.355 521.247 521.155C516.786 526.159 512.411 524.99 506.671 524.042C505.887 523.378 503.087 521.363 503.14 520.49C503.578 520.411 504.03 520.571 504.478 520.535L504.61 520.324C500.192 514.971 501.784 514.088 503.502 507.247C504.933 501.549 515.57 502.007 515.863 501.782Z"/><path d="M515.863 501.782C519.913 503.098 523.559 505.438 523.88 510.086C523.072 509.028 522.729 507.849 521.862 506.66C520.104 504.252 517.948 503.697 515.863 501.782Z"/><path fill="white" d="M505.289 508.107C508.751 504.003 510.364 503.983 515.454 504.28C517.901 506.038 520.221 506.907 520.298 509.951C520.441 510.981 520.568 512.735 520.344 513.75C519.835 515.966 518.455 517.885 516.516 519.073C512.727 521.403 507.052 519.704 505.078 515.711C503.799 513.124 504.548 511.254 505.14 508.76L505.289 508.107Z"/><path fill="#C2C1C3" d="M505.289 508.107C508.751 504.003 510.364 503.983 515.454 504.28C517.901 506.038 520.221 506.907 520.298 509.951C512.485 503.56 513.739 506.672 505.289 508.107Z"/><path fill="#7C7D7F" d="M529.342 506.13C532.857 513.559 532.771 517.915 529.547 525.758C525.743 535.01 518.547 539.981 508.757 541.675C505.547 542.231 497.313 543.351 494.348 542.172C494.426 541.687 494.534 541.476 494.258 541.104C497.095 540.793 501.074 541.753 504.314 541.191C506.753 540.769 508.761 540.677 511.267 540.027C515.208 539.004 517.674 537.971 520.977 535.656C523.93 533.586 525.183 531.443 527.406 528.689C527.968 527.67 528.617 526.524 529.071 525.479C530.91 521.244 531.314 517.312 531.075 512.748C530.963 510.615 529.573 508.295 528.934 506.25L529.342 506.13Z"/><path fill="#C2C1C3" d="M500.682 522.233C497.211 518.321 498.138 518.331 496.36 513.754C494.942 510.106 498.556 498.28 501.454 498.555L501.65 498.797C501.674 500.245 498.382 501.091 499.709 504.119C497.6 509.995 496.831 517.685 503.76 523.131C503.908 523.183 504.056 523.234 504.204 523.286C503.799 523.745 502.081 522.258 500.682 522.233Z"/><path fill="#C2C1C3" d="M507.355 497.692C510.835 494.683 516.411 497.71 520.238 498.493C523.968 499.257 526.277 502.096 528.723 504.681L528.347 505.872C527.563 504.817 521.251 497.075 520.623 501.491C516.961 499.809 512.585 497.176 508.375 498.639C507.664 498.886 507.492 499.293 506.817 499.281C507.002 498.418 507.114 498.706 507.355 497.692Z"/><path fill="#C2C1C3" d="M534.856 503.63C532.287 501.066 531.447 499.877 528.351 497.726C522.352 493.559 516.068 491.517 508.99 494.439C508.739 494.543 506.696 495.302 506.521 495.253C506.039 493.824 512.802 492.72 513.994 492.407C520.017 490.829 532.333 497.452 535.123 502.789L534.856 503.63Z"/><path fill="#5E5F60" d="M535.123 502.789C538.706 506.666 540.383 512.567 541.359 517.658L540.28 517.68C539.035 512.036 538.415 508.459 534.856 503.63L535.123 502.789Z"/><path fill="#5E5F60" d="M540.619 520.199C541.431 523.3 541.43 524.716 540.621 527.801C540.495 525.045 540.49 522.992 540.619 520.199Z"/><path fill="#4D4A4A" d="M558.765 530.149C558.662 529.6 557.789 526.46 558.25 526.21C558.737 526.385 559.535 528.527 559.811 529.111L558.765 530.149Z"/><path fill="#4D4A4A" d="M491.731 560.29C492.514 560.11 494.795 559.328 495.528 559.611L495.593 559.696C495.432 560.31 493.205 560.944 492.691 561.121L491.731 560.29Z"/><path fill="white" d="M494.258 541.104C447.595 535.844 427.555 482.957 425.54 441.925C422.955 378.079 445.738 315.803 488.912 268.697C524.423 229.151 574.334 205.53 627.431 203.142C676.659 200.656 724.856 217.849 761.396 250.933C793.644 280.276 815.538 327.684 817.609 371.079C802.735 357.071 791.325 349.234 773.245 340.014C773.119 339.622 772.994 339.229 772.868 338.837C744.435 262.049 655.513 222.083 580.472 249.032C533.986 266.084 496.05 300.702 474.828 345.438C455.646 386.37 448.196 426.383 457.224 471.743C458.727 479.295 462.239 488.469 464.892 495.81L465.627 495.566C456.153 463.792 481.294 423.637 503.065 401.705C551.582 352.828 620.195 320.895 689.748 322.651C772.453 325.461 843.173 378.655 866.273 458.051C880.268 504.865 874.695 555.351 850.827 597.986C843.93 610.586 835.484 622.274 825.686 632.778C825.091 613.268 822.357 597.503 817.339 578.62C835.218 541.019 837.335 497.834 823.218 458.665C791.009 368.331 692.945 337.495 607.661 368.552C559.004 386.27 515.172 416.853 491.608 464.291C486.311 475.029 482.469 488.488 482.405 500.513C482.729 498.952 482.947 498.222 483.46 496.702C484.739 483.584 489.862 471.134 498.188 460.916C515.626 439.519 544.563 429.002 571.192 426.531C613.817 422.352 653.643 430.718 692.241 448.707C763.579 481.956 812.988 539.322 820.725 619.53C825.08 668.27 810.238 716.784 779.358 754.744C747.601 793.044 702.22 814.174 653.11 818.653C668.162 800.614 672.78 794.707 684.695 774.064C720.502 761.228 751.17 731.167 767.345 696.961C784.905 659.769 787.02 617.136 773.23 578.388C748.279 509.233 674.433 459.455 602.15 454.059C579.906 452.399 554.885 454.639 533.843 462.219C535.324 463.053 535.25 463.012 536.939 463.315C564.798 461.439 592.94 476.006 613.244 494.009C701.032 571.845 738.765 714.169 655.569 809.455C621.77 848.166 575.675 871.881 524.156 874.82C471.531 877.992 430.337 861.414 391.514 827.035C390.639 826.26 389.771 825.478 388.91 824.688C409.685 824.38 422.911 822.814 442.997 817.216C475.043 835.368 518.066 838.295 553.2 828.53C592.954 817.265 626.678 790.808 647.084 754.879C669.498 715.037 672.808 664.326 659.896 620.993C644.492 569.297 613.704 521.596 566.094 494.464C555.448 488.398 540.358 482.624 528.057 481.885C525.209 481.039 519.027 481.997 516.008 482.569C505.685 484.536 494.62 492.482 492.509 503.235C491.932 506.045 492.038 510.004 492.526 512.777C493.022 515.595 494.185 517.986 495.681 520.285C497.592 523.223 498.304 523.78 501.479 525.14C503.276 525.909 504.744 526.902 506.826 527.222C516.22 530.154 525.885 523.861 527.245 514.252C527.269 513.752 527.293 513.251 527.317 512.75C527.43 511.453 528.444 508.969 527.357 507.884L527.321 507.886C526.801 508.724 527.899 512.2 526.264 512.63C525.899 511.949 526.058 510.825 526.013 510.001C525.804 506.218 523.23 503.78 520.623 501.491C521.251 497.075 527.563 504.817 528.347 505.872L528.934 506.25C529.573 508.295 530.963 510.615 531.075 512.748C531.314 517.312 530.91 521.244 529.071 525.479C528.617 526.524 527.968 527.67 527.406 528.689C525.183 531.443 523.93 533.586 520.977 535.656C517.674 537.971 515.208 539.004 511.267 540.027C508.761 540.677 506.753 540.769 504.314 541.191C501.074 541.753 497.095 540.793 494.258 541.104Z"/><path fill="#5E5F60" d="M482.405 500.513C482.729 498.952 482.947 498.222 483.46 496.702C483.519 508.73 483.623 517.126 492.959 526.243L492.023 526.518C485.227 518.312 481.547 511.779 482.405 500.513Z"/><path fill="#C2C1C3" d="M492.959 526.243C499.777 531.627 507.41 533.761 515.686 530.272C516.09 530.101 517.362 529.281 517.477 530C516.963 531.331 511.471 532.388 510.009 532.614C503.657 533.592 496.563 531.141 492.023 526.518L492.959 526.243Z"/><path fill="#5E5F60" d="M524.985 465.792C526.591 464.641 531.838 462.667 533.843 462.219C535.324 463.053 535.25 463.012 536.939 463.315C532.294 463.961 529.59 464.653 524.985 465.792Z"/><path fill="#7C7D7F" d="M465.627 495.566C465.707 495.787 466.411 497.532 465.783 497.637C465.271 497.324 465.055 496.324 464.892 495.81L465.627 495.566Z"/><path fill="#C2C1C3" d="M524.26 525.045C524.508 526.774 520.906 528.374 519.545 529.056C519.189 528.739 519.268 528.859 519.186 528.677C519.288 528.327 523.779 525.381 524.26 525.045Z"/><path fill="white" d="M541.154 753.35C542.766 754.206 545.221 756.093 546.816 757.241C567.9 772.424 593.804 782.665 620.074 784.203C613.31 791.25 604.146 798.293 596.186 803.947C593.423 805.881 591.451 807.004 588.496 808.65C566.442 803.23 537.867 788.722 521.367 772.829C528.403 766.594 534.666 760.133 541.154 753.35Z"/><path fill="white" d="M250.665 521.395C252.242 522.558 257.088 527.584 258.73 529.203C262.765 533.196 266.904 537.083 271.143 540.859C258.722 555.186 249.13 576.434 244.205 594.546C242.946 599.093 241.935 603.704 241.176 608.361C240.903 610.099 240.246 618.086 239.523 618.928L238.623 618.255C229.932 608.597 222.324 599.956 216.143 588.378C221.386 564.702 234.893 539.746 250.665 521.395Z"/><path fill="white" d="M783.101 403.284C788.754 407.524 803.988 428.033 807.95 434.639C801.531 458.917 792.554 478.912 776.94 498.795L773.745 502.487C766.574 494.896 761.416 490.016 753.53 483.091C772.548 458.952 781.028 433.72 783.101 403.284Z"/><path fill="white" d="M356.228 703.794C359.146 703.533 362.415 703.419 365.368 703.252C367.173 732.392 379.823 755.446 395.543 778.788C389.016 778.678 383.221 778.488 376.75 777.654C368.879 776.895 362.517 775.38 354.876 773.585C344.293 748.341 339.01 732.099 336.963 704.46C343.729 704.5 349.495 704.409 356.228 703.794Z"/><path fill="white" d="M628.98 244.362C641.468 244.542 657.16 246.499 669.036 250.293C677.698 267.72 683.342 286.491 685.728 305.805C686.166 309.116 686.958 315.451 686.427 318.485C675.951 318.321 668.565 318.937 658.196 319.658C656.454 294.367 644.113 264.307 628.98 244.362Z"/><path fill="white" d="M436.537 214.617C461.291 221.745 481.665 234.376 501.851 249.93C495.184 256.561 488.55 263.226 481.951 269.925C479.641 267.827 477.223 266.015 474.756 264.11C453.579 248.693 430.006 242.594 404.582 238.82C411.816 230.856 427.261 220.18 436.537 214.617Z"/><path fill="white" d="M777.933 629.56L778.227 629.943C778.369 641.789 776.459 655.345 774.04 666.93C755.078 677.842 727.59 684.929 705.954 685.562C705.772 676.083 705.219 666.616 704.297 657.181C730.717 654.075 756.477 645.716 777.933 629.56Z"/><path fill="white" d="M312.996 337.706C314.347 337.521 317.043 337.509 318.507 337.455C318.425 347.508 319.037 355.384 319.869 365.413C294.985 366.956 271.201 377.509 250.571 390.959L245.969 394.525C246.772 380.126 247.471 370.159 250.799 356.012C269.528 345.947 291.882 339.895 312.996 337.706Z"/><path fill="white" d="M596.916 643.242C623.582 653.437 635.495 655.552 663.353 658.557C663.441 663.977 663.968 679.692 663.249 684.034C661.699 684.817 661.61 684.472 659.552 684.317C634.688 680.883 613.674 674.965 591.464 663.067C593.389 656.489 595.207 649.88 596.916 643.242Z"/><path fill="white" d="M673.583 360.736C677.289 360.661 681.366 360.912 685.103 361.067C683.198 387.402 675.873 409.489 664.385 433.004L657.621 430.809C653.57 429.455 648.452 428.294 644.247 427.225C653.366 405.704 658.988 384.996 659.516 361.426C664.021 361.068 669.032 360.945 673.583 360.736Z"/><path fill="white" d="M361.832 339.068C384.716 340.352 411.421 349.4 431.882 359.539C430.397 365.065 428.981 370.609 427.632 376.171C427.454 377.473 427.335 377.709 426.966 378.986C425.091 379.966 416.783 376.159 414.315 375.288C397.38 369.309 379.864 366.159 362.05 364.64C361.667 355.953 361.131 347.79 361.832 339.068Z"/><path fill="white" d="M359.98 590.894C365.232 593.039 374.419 595.438 379.957 596.918C373.737 610.608 368.948 627.153 366.079 641.954C364.979 647.625 364.989 656.279 363.615 661.336C362.023 662.305 359.822 662.05 357.875 662.06C351.248 662.322 345.431 662.521 338.807 662.067C340.336 640.236 350.095 610.229 359.98 590.894Z"/><path fill="white" d="M350.429 460.559C352.588 461.46 359.082 474.117 360.804 477.194C352.408 481.098 343.912 483.972 335.054 488.338C320.269 495.625 312.917 501.52 300.025 510.72C298.578 510.825 298.37 510.151 296.834 508.921C292.335 504.625 287.328 499.445 283.42 494.603C302.72 480.763 327.706 467.531 350.429 460.559Z"/><path fill="white" d="M724.544 512.47C727.75 514.608 737.739 526.194 740.459 529.445C719.16 544.862 702.949 552.694 678.274 561.669L673.165 562.927C670.382 557.775 666.368 551.58 663.224 546.558C688.656 537.1 703.08 529.605 724.544 512.47Z"/><path fill="white" d="M476.337 663.922C477.363 664.995 479.929 672.219 480.761 674.267C483.727 681.446 487.134 688.434 490.961 695.192C498.007 707.726 503.595 714.277 512.646 724.936C508.5 729.476 501.203 735.761 496.476 740.059C495.062 738.94 491.292 734.212 490.157 732.632C477.615 715.175 466.886 693.716 460.443 673.293C465.909 670.206 471.057 667.325 476.337 663.922Z"/><path fill="white" d="M527.603 283.806C529.37 284.216 533.056 289.982 534.209 291.69C546.541 309.933 556.397 329.731 563.521 350.566C558.525 353.444 553.164 356.903 548.222 359.961L547.344 359.883C545.903 357.948 544.562 353.309 543.463 350.671C541.44 345.75 539.219 340.913 536.807 336.17C529.454 321.876 521.605 311.226 512.257 298.334C517.047 293.159 522.173 288.306 527.603 283.806Z"/><path fill="white" d="M403.363 531.316C405.707 533.022 411.626 538.027 414.039 540.082C407.51 547.154 402.629 554.328 397.519 562.452C397.183 562.987 393.708 561.819 393.132 561.665C392.839 561.594 392.546 561.523 392.253 561.453C388.709 560.496 385.17 559.519 381.637 558.523C387.385 549.612 396.249 539.248 403.363 531.316Z"/><path fill="white" d="M626.822 461.271C631.58 462.119 639.02 464.601 643.897 466.018C636.846 473.799 632.684 479.933 624.687 487.597L620.267 491.858C616.953 488.921 614.126 486.942 610.543 484.389C617.102 477.783 622.805 469.68 626.822 461.271Z"/><path fill="white" d="M465.295 380.736C466.906 381.532 468.784 382.92 470.224 384.041C477.861 389.989 485.091 396.441 491.868 403.353C489.959 406.043 487.991 408.557 486.031 411.189C485.926 411.316 484.806 412.815 484.481 412.571C476.614 406.649 470.147 401.338 461.225 396.785C461.433 396.019 461.65 395.256 461.866 394.492L462.361 392.492L462.593 391.508L463.34 388.493L463.827 386.494C464.315 384.484 464.72 382.731 465.295 380.736Z"/><path fill="white" d="M539.836 610.908C547.998 616.226 553.903 622.093 562.896 627.235C562.44 629.085 559.501 643.272 558.499 643.454C558.079 643.315 558.062 643.222 557.71 642.862C548.738 634.76 540.85 628.671 532.069 619.731C535.62 616.202 536.749 614.816 539.836 610.908Z"/><path fill="white" d="M627.189 559.091C629.293 558.871 635.343 570.731 637.003 573.336C628.603 574.076 621.225 574.929 612.715 575.253C610.038 575.314 607.36 575.286 604.685 575.168C604.334 570.803 603.713 567.155 603.315 562.917C612.804 561.904 617.835 561.032 627.189 559.091Z"/><path fill="white" d="M459.424 603.761C459.911 604.142 462.017 617.346 462.403 619.258C462.998 622.138 463.724 624.99 464.581 627.804C464.462 627.884 464.343 627.964 464.225 628.044C460.19 630.703 456.049 633.195 451.809 635.513C449.213 637.069 449.221 630.121 449.045 628.25C448.293 620.574 447.844 612.873 447.698 605.162C451.637 604.736 455.506 604.217 459.424 603.761Z"/><path fill="white" d="M405.873 448.716C408.876 448.326 416.28 448.501 419.569 448.508C419.805 452.631 420.361 456.271 420.703 460.317C414.913 460.689 408.983 461.208 403.386 462.861C401.753 463.348 400.084 463.755 398.459 464.247L396.374 464.881C393.671 460.426 390.653 455.268 388.257 450.704C394.245 449.983 399.851 449.287 405.873 448.716Z"/><path fill="white" d="M573.403 387.979C575.271 390.526 575.449 414.374 575.451 419.129C571.483 419.669 567.534 420.237 563.564 420.756C562.515 411.465 561.469 405.106 560.21 396.144C564.218 393.274 569.126 390.638 573.403 387.979Z"/></svg>